<?xml version="1.0" encoding="utf-8"?>
<svg version="1.1" id="Layer_1"
xmlns="http://www.w3.org/2000/svg"
xmlns:xlink="http://www.w3.org/1999/xlink"
width="550px" height="400px"
xml:space="preserve">
<g id="PathID_429" transform="matrix(1.70344, 0, 0, 1.70344, 398.4, 230.2)" opacity="1">
<path style="fill:#000000;fill-opacity:0" d="M25.75 -4.3L25.75 0L4.4 0L4.4 -35.45L9.35 -35.45L9.35 -4.3L25.75 -4.3" />
</g>
<g id="PathID_430" transform="matrix(1.70344, 0, 0, 1.70344, 398.4, 230.2)" opacity="1">
</g>
<g id="PathID_431" transform="matrix(1.70344, 0, 0, 1.70344, 439.95, 230.2)" opacity="1">
<path style="fill:#000000;fill-opacity:0" d="M8.85 0L4.1 0L4.1 -26.6L8.85 -26.6L8.85 0M6.45 -31.4Q5.15 -31.4 4.25 -32.25Q3.35 -33.1 3.35 -34.55Q3.35 -36 4.25 -36.85Q5.15 -37.65 6.45 -37.65Q7.7 -37.65 8.6 -36.85Q9.5 -36 9.5 -34.55Q9.5 -33.1 8.6 -32.25Q7.7 -31.4 6.45 -31.4" />
</g>
<g id="PathID_432" transform="matrix(1.70344, 0, 0, 1.70344, 439.95, 230.2)" opacity="1">
</g>
<g id="PathID_433" transform="matrix(1.70344, 0, 0, 1.70344, 458.35, 230.2)" opacity="1">
<path style="fill:#000000;fill-opacity:0" d="M4.1 -25.85Q5.7 -26.25 8.45 -26.7Q11.15 -27.15 14.7 -27.15Q17.85 -27.15 19.95 -26.3Q22.05 -25.4 23.3 -23.75Q24.55 -22.15 25.1 -19.9Q25.6 -17.65 25.6 -14.95L25.6 0L20.85 0L20.85 -13.9Q20.85 -16.35 20.5 -18.1Q20.15 -19.85 19.4 -20.95Q18.6 -22 17.35 -22.5Q16.05 -23 14.15 -23L12.6 -22.9L11 -22.8L9.7 -22.6L8.85 -22.45L8.85 0L4.1 0L4.1 -25.85" />
</g>
<g id="PathID_434" transform="matrix(1.70344, 0, 0, 1.70344, 458.35, 230.2)" opacity="1">
</g>
<g id="PathID_435" transform="matrix(1.70344, 0, 0, 1.70344, 504.8, 230.2)" opacity="1">
<path style="fill:#000000;fill-opacity:0" d="M13.7 -14.65Q15.25 -13.45 16.95 -11.7Q18.7 -9.95 20.35 -7.95Q22 -5.95 23.5 -3.85Q24.95 -1.8 26 0L20.4 0Q19.35 -1.8 17.95 -3.65Q16.55 -5.5 15 -7.25Q13.45 -8.95 11.85 -10.4Q10.3 -11.8 8.85 -12.8L8.85 0L4.1 0L4.1 -38.9L8.85 -39.7L8.85 -15.45L11.55 -18.15L14.5 -21.2L17.2 -24.15L19.4 -26.6L24.95 -26.6L22.4 -23.8Q21.05 -22.25 19.55 -20.7L16.55 -17.55L13.7 -14.65" />
</g>
<g id="PathID_436" transform="matrix(1.70344, 0, 0, 1.70344, 504.8, 230.2)" opacity="1">
</g>
<g id="PathID_437" transform="matrix(1.70344, 0, 0, 1.70344, 546.7, 230.2)" opacity="1">
<path style="fill:#000000;fill-opacity:0" d="M10.3 -3.4Q13.2 -3.4 14.6 -4.2Q16 -4.95 16 -6.65Q16 -8.4 14.65 -9.4Q13.25 -10.45 10.05 -11.7L7.15 -12.95Q5.7 -13.6 4.7 -14.5Q3.65 -15.35 3.05 -16.6Q2.45 -17.8 2.45 -19.6Q2.45 -23.15 5.05 -25.2Q7.65 -27.3 12.15 -27.3Q13.3 -27.3 14.45 -27.15L16.55 -26.85L18.25 -26.45L19.4 -26.1L18.5 -22Q17.75 -22.4 16.1 -22.85Q14.5 -23.3 12.15 -23.3Q10.2 -23.3 8.7 -22.5Q7.2 -21.7 7.2 -20Q7.2 -19.15 7.55 -18.45Q7.85 -17.8 8.55 -17.25Q9.25 -16.75 10.3 -16.25Q11.3 -15.8 12.75 -15.3Q14.65 -14.6 16.1 -13.9Q17.6 -13.2 18.65 -12.3Q19.7 -11.35 20.25 -10.05Q20.85 -8.75 20.85 -6.85Q20.85 -3.15 18.1 -1.25Q15.35 0.6 10.3 0.6Q6.75 0.6 4.75 0Q2.75 -0.55 2.05 -0.85L2.9 -4.95L5.5 -4.05Q7.3 -3.4 10.3 -3.4" />
</g>
<g id="PathID_438" transform="matrix(1.70344, 0, 0, 1.70344, 546.7, 230.2)" opacity="1">
</g>
<g id="PathID_439" transform="matrix(1.40625, 0, 0, 1.40625, 244.85, 164.45)" opacity="1">
<path style="fill:#F28123;fill-opacity:0.94902" d="M29.8 -19.1L28.45 -19.1L28.55 -22.2Q28.55 -25.75 27.05 -27.15Q25.6 -28.55 23.4 -28.55Q20.4 -28.55 17.2 -26.1Q14 -23.7 11.7 -18.6Q9.4 -13.5 9.4 -8.1Q9.4 -2.85 11.5 -0.05Q13.65 2.7 16.9 2.7Q21.25 2.7 24.9 -2.5Q25.3 -3.05 25.7 -3.05Q26 -3.05 26.25 -2.8Q26.5 -2.6 26.5 -2.35Q26.5 -1.65 24.8 0.3Q23.15 2.3 20.6 3.6Q18.1 4.9 15.65 4.9Q12.7 4.9 10.15 3.35Q7.65 1.85 6.25 -1Q4.9 -3.85 4.9 -7.8Q4.9 -13.25 7.75 -18.65Q10.6 -24.1 14.9 -27.05Q19.2 -30.05 23.3 -30.05Q24.8 -30.05 26.25 -29.7L31.4 -28Q29.95 -23.65 29.8 -19.1" />
</g>
<g id="PathID_440" transform="matrix(1.40625, 0, 0, 1.40625, 244.85, 164.45)" opacity="1">
</g>
<g id="PathID_441" transform="matrix(1.40625, 0, 0, 1.40625, 282.3, 164.45)" opacity="1">
<path style="fill:#F28123;fill-opacity:0.94902" d="M14.75 -6.1L15.6 -5.2Q13.65 -2.95 10.95 -1.15Q8.3 0.65 6.6 0.65Q5.8 0.65 5.3 0.05Q4.85 -0.5 4.85 -1.5Q4.85 -3.5 6.4 -9.8L9.1 -20.75Q10.55 -26.7 11.55 -28.75Q13.1 -31.8 15.95 -33.5Q18.8 -35.2 21.95 -35.2Q23 -35.2 23.6 -34.65Q24.25 -34.15 24.25 -33.4Q24.25 -32.6 23.65 -32.1Q23.05 -31.6 21.9 -31.6Q21.15 -31.6 19.75 -31.85Q18.55 -32.05 17.55 -32.05Q16.5 -32.05 16 -31.6Q15.25 -31 14.65 -29.05Q14.1 -27.15 12.75 -21.55L10.3 -11.05Q8.45 -3.25 8.45 -2.9Q8.45 -2.1 9 -2.1Q9.55 -2.1 10.6 -2.75Q12.65 -4.05 14.75 -6.1" />
</g>
<g id="PathID_442" transform="matrix(1.40625, 0, 0, 1.40625, 282.3, 164.45)" opacity="1">
</g>
<g id="PathID_443" transform="matrix(1.40625, 0, 0, 1.40625, 299.55, 164.45)" opacity="1">
<path style="fill:#F28123;fill-opacity:0.94902" d="M15 -31.8Q15.8 -31.8 16.3 -31.25Q16.8 -30.75 16.8 -29.95Q16.8 -28.85 16 -28Q15.25 -27.2 14.3 -27.2Q13.55 -27.2 13.05 -27.7Q12.6 -28.25 12.6 -29.1Q12.6 -30.2 13.3 -31Q14 -31.8 15 -31.8M5.15 -15.2L4.05 -16.05Q6.55 -18.8 8.6 -19.95Q10.65 -21.15 12.1 -21.15Q12.9 -21.15 13.3 -20.8Q13.75 -20.45 13.75 -19.85Q13.75 -19.1 12.15 -13.7Q9.5 -4.8 9.5 -3Q9.5 -2.65 9.65 -2.45Q9.85 -2.25 10.05 -2.25Q10.85 -2.25 14.15 -5.4L15.15 -4.45Q11.7 -1.15 10.1 -0.25Q8.55 0.65 7.55 0.65Q6.65 0.65 6.15 0.1Q5.65 -0.4 5.65 -1.35Q5.65 -4.5 9.4 -16.65Q9.6 -17.2 9.6 -17.65Q9.6 -18.15 9.1 -18.15Q8.6 -18.15 7.95 -17.75Q7.35 -17.35 5.15 -15.2" />
</g>
<g id="PathID_444" transform="matrix(1.40625, 0, 0, 1.40625, 299.55, 164.45)" opacity="1">
</g>
<g id="PathID_445" transform="matrix(1.40625, 0, 0, 1.40625, 316.8, 164.45)" opacity="1">
<path style="fill:#F28123;fill-opacity:0.94902" d="M18.1 -5.5L18.7 -4.05Q12.7 0.65 8.55 0.65Q6.35 0.65 5.35 -0.85Q4.4 -2.4 4.4 -4.8Q4.4 -8.75 6.5 -12.9Q8.6 -17.1 11.6 -19.3Q13.95 -21.05 16.9 -21.05Q18.75 -21.05 19.7 -20.35Q20.7 -19.65 20.7 -18.65Q20.7 -17.85 20.15 -17.35Q19.65 -16.9 18.75 -16.9Q17.9 -16.9 16.5 -17.7Q15.1 -18.55 14.15 -18.55Q12.9 -18.55 11.7 -17.4Q10.5 -16.3 9.4 -13.1Q8.3 -9.95 8.3 -6.75Q8.3 -4.35 9.2 -3.05Q9.9 -2.1 11.1 -2.1Q14.05 -2.1 18.1 -5.5" />
</g>
<g id="PathID_446" transform="matrix(1.40625, 0, 0, 1.40625, 316.8, 164.45)" opacity="1">
</g>
<g id="PathID_447" transform="matrix(1.61818, 0, 0, 1.71053, 4.8, 38.5)" opacity="1">
<path style="fill:#F28123;fill-opacity:0.94902" d="M116.3 39.1Q126.75 49.55 127.25 64.1L125.85 64.1L125.85 63.65L121.75 64.1L115.85 64.1L115.85 63.65L105.85 64.1L105.85 63.65L95.85 64.1L95.85 63.65L94.05 64.1L94.05 29.55L84.05 29.55L84.05 64.1L53.6 64.1Q53.6 49.55 64.05 39.1Q72.7 30.45 84.05 28.65L84.05 23.65L79.05 14.55Q74.05 9.55 67.25 9.55Q60.4 9.55 55.4 14.55L50.4 24.55L50.4 34.55Q49.95 44.55 42.7 51.85Q34.95 59.55 24.05 59.55Q13.6 59.55 5.9 51.85L0 43.2L0 39.55L2.7 37.3L6.35 37.3L9.05 40L12.25 45Q17.25 50 24.05 50Q30.9 50 35.9 45Q40.45 40.45 40.9 34.1L40.9 23.65Q41.8 14.55 48.6 7.75Q56.35 0 67.25 0Q78.15 0 85.85 7.75Q92.7 14.55 94.05 23.65L94.05 28.65Q106.8 29.55 116.3 39.1M53.6 113.2L53.6 73.65L127.25 73.65L127.25 113.2Q127.25 128.2 116.3 139.1Q112.85 142.7 108.9 145.1Q100.75 150 90.4 150Q80.05 150 71.75 145.1Q67.65 142.7 64.05 139.1Q53.6 128.2 53.6 113.2" />
</g>
<g id="PathID_448" transform="matrix(1.61818, 0, 0, 1.71053, 4.8, 38.5)" opacity="1">
</g>
<g id="PathID_449" transform="matrix(1.40625, 0, 0, 1.40625, 244.85, 226.45)" opacity="1">
<path style="fill:#F28123;fill-opacity:0.94902" d="M23.65 1.15L21.65 -25.85Q21 -19.05 19.2 -13.15Q17.45 -7.25 15.2 -4.05Q13 -0.85 10.65 0.45Q8.35 1.75 6.1 1.75Q4.7 1.75 3.95 1.2Q3.25 0.65 3.25 -0.2Q3.25 -0.85 3.75 -1.35Q4.3 -1.9 5.15 -1.9Q5.75 -1.9 6.85 -1.6Q7.9 -1.35 8.55 -1.35Q9.75 -1.35 11 -2.2Q12.95 -3.5 14.8 -6.85Q16.7 -10.2 18.2 -16.2Q19.7 -22.2 20.1 -27.95Q14.4 -27.95 10.85 -25.1Q8.05 -22.85 8.05 -20.05Q8.05 -18.8 9.35 -17.1Q10.1 -16.15 10.1 -15.6Q10.1 -14.95 9.65 -14.5Q9.25 -14.1 8.7 -14.1Q7.7 -14.1 6.95 -15.2Q5.95 -16.65 5.95 -18.7Q5.95 -21.55 7.85 -24.15Q9.75 -26.75 13.15 -28.1Q16.55 -29.5 21.1 -29.55Q23.55 -29.55 25.05 -30Q24.95 -27.75 25 -27.6Q24.95 -27.35 25.05 -26.55L26.5 -7.5Q32.55 -18.05 38.35 -24.9Q42.45 -29.7 45.55 -31.4Q43.8 -26.65 41.8 -18.85L38.75 -6.85L38.05 -3.95L37.45 -1.3Q39.35 -0.85 40.9 -0.85Q42.2 -0.85 43.65 -1.15L43.3 0.3Q42 0.55 41.3 0.55Q40.3 0.55 38.35 0.35Q36.75 0.1 35.55 0.1Q34.25 0.1 32.6 0.6Q33.95 -2.95 35.45 -9.05L37.4 -16.7Q38.6 -21.65 39.55 -23.5Q37.5 -21.2 33.35 -15.1Q29.95 -10.2 25.8 -2.7L23.65 1.15" />
</g>
<g id="PathID_450" transform="matrix(1.40625, 0, 0, 1.40625, 244.85, 226.45)" opacity="1">
</g>
<g id="PathID_451" transform="matrix(1.40625, 0, 0, 1.40625, 305.3, 226.45)" opacity="1">
<path style="fill:#F28123;fill-opacity:0.94902" d="M21.4 -21.4L23.1 -21.75L21.25 -15.45Q20.1 -11.65 19.1 -6.75Q18.55 -4.05 18.55 -3.3Q18.55 -2.55 19.2 -2.55Q19.6 -2.55 20.45 -3.05Q21.95 -3.95 23.4 -5.35L24.2 -4.35Q21.35 -1.75 20.55 -1.2Q18.95 -0.1 17.5 0.45Q16.55 0.75 15.65 0.75Q15 0.75 14.65 0.45Q14.35 0.15 14.35 -0.4Q14.35 -0.8 14.55 -1.45L15.55 -4.8Q13.4 -2.2 10.4 -0.35Q8.6 0.75 7.05 0.75Q5.6 0.75 4.85 -0.25Q3.8 -1.65 3.8 -3.85Q3.8 -6.5 5.2 -9.75Q6.6 -13 8.95 -15.65Q11.35 -18.3 14 -19.55Q16 -20.55 19.2 -20.55Q20 -20.55 20.8 -20.4L21.4 -21.4M18.3 -17.5Q16.95 -17.8 16.05 -17.8Q13.8 -17.8 12.1 -16.55Q10.45 -15.3 9 -12.1Q7.6 -8.9 7.6 -5.7Q7.6 -4 8.15 -3.25Q8.7 -2.55 9.65 -2.55Q11.35 -2.55 13.3 -4.4Q15.3 -6.25 16.25 -9.75L18.3 -17.5" />
</g>
<g id="PathID_452" transform="matrix(1.40625, 0, 0, 1.40625, 305.3, 226.45)" opacity="1">
</g>
<g id="PathID_453" transform="matrix(1.40625, 0, 0, 1.40625, 335.5, 226.45)" opacity="1">
<path style="fill:#F28123;fill-opacity:0.94902" d="M11.35 -24.85L15.3 -26.45L13.5 -19.45L18.7 -19.45L18.3 -17.65L13.1 -17.65L10.95 -9.2Q9.9 -5.5 9.9 -4.05Q9.9 -3.35 10.15 -3.05Q10.45 -2.8 10.95 -2.8Q11.75 -2.8 13.35 -3.7Q15.45 -4.95 17.35 -6.5L18.3 -5.35Q12.8 -1.2 10.95 -0.25Q9.1 0.65 8 0.65Q7.05 0.65 6.5 0Q6 -0.7 6 -2.2Q6 -4 6.95 -7.7L9.45 -17.65L5.4 -17.65L5.85 -19.45L9.95 -19.45L11.35 -24.85" />
</g>
<g id="PathID_454" transform="matrix(1.40625, 0, 0, 1.40625, 335.5, 226.45)" opacity="1">
</g>
<g id="PathID_455" transform="matrix(1.40625, 0, 0, 1.40625, 358.55, 226.45)" opacity="1">
<path style="fill:#F28123;fill-opacity:0.94902" d="M21.4 -21.4L23.1 -21.75L21.25 -15.45Q20.1 -11.65 19.1 -6.75Q18.55 -4.05 18.55 -3.3Q18.55 -2.55 19.2 -2.55Q19.6 -2.55 20.45 -3.05Q21.95 -3.95 23.4 -5.35L24.2 -4.35Q21.35 -1.75 20.55 -1.2Q18.95 -0.1 17.5 0.45Q16.55 0.75 15.65 0.75Q15 0.75 14.65 0.45Q14.35 0.15 14.35 -0.4Q14.35 -0.8 14.55 -1.45L15.55 -4.8Q13.4 -2.2 10.4 -0.35Q8.6 0.75 7.05 0.75Q5.6 0.75 4.85 -0.25Q3.8 -1.65 3.8 -3.85Q3.8 -6.5 5.2 -9.75Q6.6 -13 8.95 -15.65Q11.35 -18.3 14 -19.55Q16 -20.55 19.2 -20.55Q20 -20.55 20.8 -20.4L21.4 -21.4M18.3 -17.5Q16.95 -17.8 16.05 -17.8Q13.8 -17.8 12.1 -16.55Q10.45 -15.3 9 -12.1Q7.6 -8.9 7.6 -5.7Q7.6 -4 8.15 -3.25Q8.7 -2.55 9.65 -2.55Q11.35 -2.55 13.3 -4.4Q15.3 -6.25 16.25 -9.75L18.3 -17.5" />
</g>
<g id="PathID_456" transform="matrix(1.40625, 0, 0, 1.40625, 358.55, 226.45)" opacity="1">
</g>
<g id="PathID_457" transform="matrix(1.40625, 0, 0, 1.40625, 388.75, 226.45)" opacity="1">
<path style="fill:#F28123;fill-opacity:0.94902" d="M5.05 -15.05L4.2 -15.95Q7.4 -19 9.3 -20Q11.25 -21.05 12.65 -21.05Q13.15 -21.05 13.45 -20.8Q13.75 -20.6 13.75 -20.3L13.65 -19.5L12.5 -14.45Q15.05 -17.3 18.85 -19.75Q20.9 -21.05 22.2 -21.05Q23.2 -21.05 23.75 -20.4Q24.3 -19.8 24.3 -18.65Q24.3 -17.85 24.05 -16.9Q23.65 -15.25 22 -9.8Q20.4 -4.7 20.4 -3.05Q20.4 -2.55 20.55 -2.3Q20.7 -2.1 21 -2.1Q21.7 -2.1 23.25 -3.5Q24.35 -4.5 25.5 -5.35L26.1 -4.45Q23.8 -1.9 21.3 -0.35Q19.75 0.65 18.7 0.65Q17.75 0.65 17.25 0Q16.75 -0.7 16.75 -2.2Q16.75 -4.45 19.5 -13.3Q20.35 -16.45 20.35 -16.95Q20.35 -17.7 19.4 -17.7Q18.4 -17.7 16.85 -16.65Q14.5 -15.1 12.9 -13Q11.9 -11.65 11.25 -8.7L9.2 0L5.5 0Q6.55 -3.7 7.3 -7.15L9.55 -16.65L9.65 -17.45Q9.65 -18.15 9.15 -18.15Q8.75 -18.15 8 -17.6Q6.4 -16.55 5.05 -15.05" />
</g>
<g id="PathID_458" transform="matrix(1.40625, 0, 0, 1.40625, 388.75, 226.45)" opacity="1">
</g>
<g id="PathID_459" transform="matrix(1.40625, 0, 0, 1.40625, 421.85, 226.45)" opacity="1">
<path style="fill:#F28123;fill-opacity:0.94902" d="M20.15 -18.35Q17.9 -17.75 16 -17.75Q14.95 -17.75 13.65 -17.9Q11.9 -18.1 11.3 -18.1Q10.55 -18.1 10.15 -17.75Q9.75 -17.4 9.75 -16.85Q9.75 -16 10.6 -15.95Q11.75 -15.8 11.75 -14.9Q11.75 -14.45 11.4 -14.1Q11.05 -13.8 10.6 -13.8Q9.7 -13.8 8.95 -14.65Q8.2 -15.55 8.2 -16.9Q8.2 -18.6 9.6 -19.8Q11 -21.05 13.1 -21.05Q14.2 -21.05 16.1 -20.7Q19.1 -20.25 20.45 -20.25Q21.8 -20.25 22.95 -21.15Q23.5 -21.6 23.85 -21.6Q24.15 -21.6 24.35 -21.35Q24.6 -21.15 24.6 -20.95Q24.6 -20.65 24.3 -20.3Q23.45 -19.3 20.45 -16.4L12.7 -9.05Q9.3 -5.85 7.05 -3.85Q8.45 -4.05 9.25 -4.05Q10.4 -4.05 11.3 -3.85Q12.25 -3.65 14.3 -3Q16.95 -2.1 18.65 -2.1Q19.7 -2.1 20.25 -2.55Q20.85 -3.05 20.85 -3.8Q20.85 -4.2 20.45 -5Q20.1 -5.75 20.1 -6.15Q20.1 -6.75 20.5 -7.15Q20.9 -7.6 21.5 -7.6Q22.2 -7.6 22.7 -7Q23.2 -6.4 23.2 -5.45Q23.2 -4.05 22.15 -2.5Q21.1 -1 19.55 -0.15Q18 0.65 15.75 0.65Q13.85 0.65 10.25 -0.4Q7.25 -1.3 5.85 -1.3Q5 -1.3 3.9 -0.4Q3.25 0.2 2.75 0.2Q1.85 0.2 1.85 -0.25Q1.85 -0.7 2.35 -1.35Q3.75 -3 9.45 -8.1Q13.3 -11.6 16.2 -14.45L20.15 -18.35" />
</g>
<g id="PathID_460" transform="matrix(1.40625, 0, 0, 1.40625, 421.85, 226.45)" opacity="1">
</g>
<g id="PathID_461" transform="matrix(1.40625, 0, 0, 1.40625, 453.55, 226.45)" opacity="1">
<path style="fill:#F28123;fill-opacity:0.94902" d="M21.4 -21.4L23.1 -21.75L21.25 -15.45Q20.1 -11.65 19.1 -6.75Q18.55 -4.05 18.55 -3.3Q18.55 -2.55 19.2 -2.55Q19.6 -2.55 20.45 -3.05Q21.95 -3.95 23.4 -5.35L24.2 -4.35Q21.35 -1.75 20.55 -1.2Q18.95 -0.1 17.5 0.45Q16.55 0.75 15.65 0.75Q15 0.75 14.65 0.45Q14.35 0.15 14.35 -0.4Q14.35 -0.8 14.55 -1.45L15.55 -4.8Q13.4 -2.2 10.4 -0.35Q8.6 0.75 7.05 0.75Q5.6 0.75 4.85 -0.25Q3.8 -1.65 3.8 -3.85Q3.8 -6.5 5.2 -9.75Q6.6 -13 8.95 -15.65Q11.35 -18.3 14 -19.55Q16 -20.55 19.2 -20.55Q20 -20.55 20.8 -20.4L21.4 -21.4M18.3 -17.5Q16.95 -17.8 16.05 -17.8Q13.8 -17.8 12.1 -16.55Q10.45 -15.3 9 -12.1Q7.6 -8.9 7.6 -5.7Q7.6 -4 8.15 -3.25Q8.7 -2.55 9.65 -2.55Q11.35 -2.55 13.3 -4.4Q15.3 -6.25 16.25 -9.75L18.3 -17.5" />
</g>
<g id="PathID_462" transform="matrix(1.40625, 0, 0, 1.40625, 453.55, 226.45)" opacity="1">
</g>
<g id="PathID_463" transform="matrix(1.40625, 0, 0, 1.40625, 483.75, 226.45)" opacity="1">
<path style="fill:#F28123;fill-opacity:0.94902" d="M15.35 -21.05Q17.55 -21.05 18.75 -20.15Q20 -19.3 20 -18.15Q20 -17.5 19.45 -17Q18.95 -16.5 18.25 -16.5Q17.75 -16.5 17.4 -16.7Q17.05 -16.9 16.4 -17.75Q15.2 -19.4 14 -19.4Q12.95 -19.4 12.15 -18.6Q11.4 -17.8 11.4 -16.65Q11.4 -15.6 11.9 -14.65Q12.4 -13.7 14.4 -11.55Q17.2 -8.6 17.2 -5.95Q17.2 -3.3 14.9 -1.3Q12.65 0.65 9.1 0.65Q6.15 0.65 4.7 -0.55Q3.25 -1.75 3.25 -3.55Q3.25 -4.4 3.8 -5Q4.35 -5.6 5.15 -5.6Q5.85 -5.6 6.35 -5.1Q6.85 -4.65 6.85 -4L6.8 -3.35L6.8 -2.8Q6.8 -2 7.5 -1.4Q8.15 -0.85 9.35 -0.85Q10.7 -0.85 11.7 -1.3Q12.75 -1.75 13.3 -2.7Q13.9 -3.65 13.9 -4.55Q13.9 -5.45 13.35 -6.35Q12.8 -7.25 10.95 -9.35Q8.35 -12.25 8.35 -14.9Q8.35 -17.35 10.3 -19.2Q12.3 -21.05 15.35 -21.05" />
</g>
<g id="PathID_464" transform="matrix(1.40625, 0, 0, 1.40625, 483.75, 226.45)" opacity="1">
</g>
</svg>
